<svg width="300" height="200" viewBox="0 0 300 200" xmlns="http://www.w3.org/2000/svg">
  <defs>
    <linearGradient id="gradientBg" x1="0%" y1="0%" x2="100%" y2="100%">
      <stop offset="0%" style="stop-color:#3b82f6;stop-opacity:0.1" />
      <stop offset="100%" style="stop-color:#10b981;stop-opacity:0.1" />
    </linearGradient>
  </defs>
  
  <!-- Background -->
  <rect width="300" height="200" fill="url(#gradientBg)"/>
  
  <!-- T-Shirt -->
  <path d="M80 60 L95 50 L115 50 L125 60 L125 70 L120 70 L120 140 L80 140 L80 70 L75 70 Z" 
        fill="#3b82f6" stroke="#2563eb" stroke-width="2"/>
  
  <!-- Jacket -->
  <path d="M140 55 L155 45 L175 45 L190 55 L190 65 L185 65 L185 135 L140 135 L140 65 L135 65 Z" 
        fill="#10b981" stroke="#059669" stroke-width="2"/>
  
  <!-- Safety Vest -->
  <path d="M200 65 L215 55 L235 55 L250 65 L250 75 L245 75 L245 145 L200 145 L200 75 L195 75 Z" 
        fill="#f59e0b" stroke="#d97706" stroke-width="2"/>
  
  <!-- Reflective Stripes on Vest -->
  <rect x="205" y="80" width="35" height="3" fill="#fbbf24"/>
  <rect x="205" y="90" width="35" height="3" fill="#fbbf24"/>
  
  <!-- Company Logo on T-Shirt -->
  <circle cx="102" cy="85" r="8" fill="#1e40af"/>
  <text x="102" y="89" text-anchor="middle" fill="white" font-size="8" font-weight="bold">VT</text>
  
  <!-- Sun Protection Accessories -->
  <ellipse cx="80" cy="40" rx="15" ry="8" fill="#6366f1" opacity="0.7"/>
  <ellipse cx="140" cy="35" rx="18" ry="10" fill="#8b5cf6" opacity="0.7"/>
  
  <!-- Labels -->
  <text x="100" y="165" text-anchor="middle" fill="#1e293b" font-size="12" font-weight="bold">Corporate Apparel</text>
  <text x="100" y="180" text-anchor="middle" fill="#64748b" font-size="10">Custom Branded Clothing</text>
</svg>