<svg width="300" height="200" viewBox="0 0 300 200" xmlns="http://www.w3.org/2000/svg">
  <defs>
    <linearGradient id="servicesBg" x1="0%" y1="0%" x2="100%" y2="100%">
      <stop offset="0%" style="stop-color:#8b5cf6;stop-opacity:0.1" />
      <stop offset="100%" style="stop-color:#ec4899;stop-opacity:0.1" />
    </linearGradient>
  </defs>
  
  <!-- Background -->
  <rect width="300" height="200" fill="url(#servicesBg)"/>
  
  <!-- Branding Service -->
  <rect x="40" y="40" width="45" height="35" fill="#ffffff" stroke="#e5e7eb" stroke-width="2" rx="4"/>
  <circle cx="62.5" cy="52" r="6" fill="#3b82f6"/>
  <text x="62.5" y="56" text-anchor="middle" fill="white" font-size="6" font-weight="bold">VT</text>
  <rect x="45" y="62" width="35" height="2" fill="#d1d5db"/>
  <rect x="45" y="66" width="25" height="2" fill="#d1d5db"/>
  <rect x="45" y="70" width="30" height="2" fill="#d1d5db"/>
  
  <!-- Printing Press -->
  <rect x="50" y="80" width="25" height="15" fill="#6b7280" rx="2"/>
  <rect x="52" y="82" width="21" height="8" fill="#f3f4f6"/>
  <rect x="54" y="84" width="17" height="4" fill="#3b82f6"/>
  <circle cx="77" cy="87" r="2" fill="#ef4444"/>
  
  <!-- Fast Delivery Truck -->
  <rect x="110" y="60" width="40" height="20" fill="#10b981" rx="4"/>
  <rect x="115" y="65" width="15" height="10" fill="#ffffff" rx="2"/>
  <text x="122.5" y="72" text-anchor="middle" fill="#059669" font-size="6" font-weight="bold">VT</text>
  <circle cx="120" cy="85" r="5" fill="#374151"/>
  <circle cx="140" cy="85" r="5" fill="#374151"/>
  <circle cx="120" cy="85" r="3" fill="#6b7280"/>
  <circle cx="140" cy="85" r="3" fill="#6b7280"/>
  
  <!-- Speed Lines -->
  <line x1="100" y1="65" x2="105" y2="65" stroke="#10b981" stroke-width="2" stroke-linecap="round"/>
  <line x1="102" y1="70" x2="107" y2="70" stroke="#10b981" stroke-width="2" stroke-linecap="round"/>
  <line x1="100" y1="75" x2="105" y2="75" stroke="#10b981" stroke-width="2" stroke-linecap="round"/>
  
  <!-- EMS Compliance Certificate -->
  <rect x="170" y="45" width="35" height="45" fill="#ffffff" stroke="#e5e7eb" stroke-width="2" rx="4"/>
  <rect x="175" y="50" width="25" height="8" fill="#22c55e" rx="2"/>
  <text x="187.5" y="56" text-anchor="middle" fill="white" font-size="6" font-weight="bold">EMS CERT</text>
  <circle cx="187.5" cy="70" r="8" fill="#22c55e" opacity="0.2"/>
  <path d="M182 70 L186 74 L193 64" stroke="#22c55e" stroke-width="2" fill="none" stroke-linecap="round"/>
  <rect x="175" y="80" width="25" height="2" fill="#d1d5db"/>
  <rect x="175" y="84" width="20" height="2" fill="#d1d5db"/>
  
  <!-- Flexible MOQ Boxes -->
  <rect x="220" y="50" width="15" height="15" fill="#f59e0b" rx="2"/>
  <rect x="238" y="55" width="15" height="15" fill="#ef4444" rx="2"/>
  <rect x="229" y="40" width="15" height="15" fill="#3b82f6" rx="2"/>
  <text x="236.5" y="48" text-anchor="middle" fill="white" font-size="6" font-weight="bold">MOQ</text>
  
  <!-- Vendor Management Network -->
  <circle cx="80" cy="130" r="12" fill="#8b5cf6"/>
  <circle cx="110" cy="125" r="8" fill="#ec4899"/>
  <circle cx="130" cy="135" r="6" fill="#06b6d4"/>
  <circle cx="105" cy="150" r="7" fill="#10b981"/>
  
  <!-- Network Lines -->
  <line x1="88" y1="125" x2="105" y2="130" stroke="#d1d5db" stroke-width="2"/>
  <line x1="115" y1="130" x2="125" y2="132" stroke="#d1d5db" stroke-width="2"/>
  <line x1="85" y1="138" x2="100" y2="145" stroke="#d1d5db" stroke-width="2"/>
  <line x1="112" y1="135" x2="108" y2="145" stroke="#d1d5db" stroke-width="2"/>
  
  <!-- Central Hub -->
  <text x="80" y="135" text-anchor="middle" fill="white" font-size="6" font-weight="bold">HUB</text>
  
  <!-- Continuous Expansion Arrow -->
  <path d="M170 120 Q190 110 210 120 Q230 130 250 120" stroke="#8b5cf6" stroke-width="3" fill="none"/>
  <path d="M245 115 L250 120 L245 125" stroke="#8b5cf6" stroke-width="2" fill="none" stroke-linecap="round"/>
  
  <!-- Growth Chart -->
  <rect x="190" y="140" width="40" height="25" fill="#ffffff" stroke="#e5e7eb" stroke-width="2" rx="2"/>
  <polyline points="195,160 200,155 205,150 210,145 215,140 220,145 225,140" 
            stroke="#22c55e" stroke-width="2" fill="none"/>
  <circle cx="225" cy="140" r="1.5" fill="#22c55e"/>
  
  <!-- Logistics Coordination -->
  <rect x="250" y="130" width="30" height="20" fill="#ffffff" stroke="#e5e7eb" stroke-width="2" rx="4"/>
  <rect x="255" y="135" width="8" height="5" fill="#3b82f6" rx="1"/>
  <rect x="266" y="137" width="8" height="5" fill="#ef4444" rx="1"/>
  <rect x="255" y="142" width="12" height="5" fill="#10b981" rx="1"/>
  <text x="265" y="156" text-anchor="middle" fill="#374151" font-size="5">LOGISTICS</text>
  
  <!-- Labels -->
  <text x="150" y="175" text-anchor="middle" fill="#1e293b" font-size="12" font-weight="bold">Special Services</text>
  <text x="150" y="190" text-anchor="middle" fill="#64748b" font-size="10">End-to-End Solutions</text>
</svg>